<?xml version="1.0" encoding="utf-8"?>
<!-- Generator: Adobe Illustrator 28.2.0, SVG Export Plug-In . SVG Version: 6.00 Build 0)  -->
<svg version="1.1" id="Layer_1" xmlns="http://www.w3.org/2000/svg" xmlns:xlink="http://www.w3.org/1999/xlink" x="0px" y="0px"
	 viewBox="0 0 704 704" style="enable-background:new 0 0 704 704;" xml:space="preserve">
<path d="M352,2C158.7,2,2,158.7,2,352s156.7,350,350,350s350-156.7,350-350S545.3,2,352,2z M537.8,324.9l-63.5,110.7
	c-8.7,15.2-19,29.4-34.7,36.5c-8.4,3.8-17.8,6-27.6,6c-24.6,0-46.1-13.3-57.8-33.1l-99.7-170.4l0.1,158.5c0,1.4-0.8,2.7-2,3.4
	l-62,33.8c-1.4,0.8-3-0.2-3-1.8V276c0-36.4,28.4-67.2,64.7-68.4c25.6-0.8,48.1,12.7,60,33.1L412,411.1l50.1-87.3
	c0.7-1.3,2.1-2.1,3.6-2h70.4C537.6,321.7,538.6,323.5,537.8,324.9z"/>
</svg>
